<?xml version="1.0"?>
<svg xmlns="http://www.w3.org/2000/svg" xmlns:xlink="http://www.w3.org/1999/xlink" width="397.610443" height="224.332672">
	<defs>
		<marker id="CustomMarker-01" markerUnits="strokeWidth" markerWidth="15.000001" markerHeight="9" viewBox="-15 -4.5 15 9" orient="auto-start-reverse">
			<path d="M 0 -0 L -10 -3, -8 -0.5, -8 0.5, -10 3 Z" fill="#000000" stroke="#000000" stroke-linejoin="round" />
		</marker>
		<marker id="CustomMarker-02" markerUnits="strokeWidth" markerWidth="15.000001" markerHeight="9" viewBox="-15 -4.5 15 9" orient="auto-start-reverse">
			<path d="M 0 -0 L -10 -3, -8 -0.5, -8 0.5, -10 3 Z" fill="#000000" stroke="#000000" stroke-linejoin="round" />
		</marker>
		<marker id="CustomMarker-03" markerUnits="strokeWidth" markerWidth="15.000001" markerHeight="9" viewBox="-15 -4.5 15 9" orient="auto-start-reverse">
			<path d="M 0 -0 L -10 -3, -8 -0.5, -8 0.5, -10 3 Z" fill="#000000" stroke="#000000" stroke-linejoin="round" />
		</marker>
		<marker id="CustomMarker-04" markerUnits="strokeWidth" markerWidth="15.000001" markerHeight="9" viewBox="-15 -4.5 15 9" orient="auto-start-reverse">
			<path d="M 0 -0 L -10 -3, -8 -0.5, -8 0.5, -10 3 Z" fill="#000000" stroke="#000000" stroke-linejoin="round" />
		</marker>
		<marker id="CustomMarker-05" markerUnits="strokeWidth" markerWidth="15.000001" markerHeight="9" viewBox="-15 -4.5 15 9" orient="auto-start-reverse">
			<path d="M 0 -0 L -10 -3, -8 -0.5, -8 0.5, -10 3 Z" fill="#000000" stroke="#000000" stroke-linejoin="round" />
		</marker>
		<marker id="CustomMarker-06" markerUnits="strokeWidth" markerWidth="15.000001" markerHeight="9" viewBox="-15 -4.5 15 9" orient="auto-start-reverse">
			<path d="M 0 -0 L -10 -3, -8 -0.5, -8 0.5, -10 3 Z" fill="#000000" stroke="#000000" stroke-linejoin="round" />
		</marker>
		<marker id="CustomMarker-07" markerUnits="strokeWidth" markerWidth="15.000001" markerHeight="9" viewBox="-15 -4.5 15 9" orient="auto-start-reverse">
			<path d="M 0 -0 L -10 -3, -8 -0.5, -8 0.5, -10 3 Z" fill="#000000" stroke="#000000" stroke-linejoin="round" />
		</marker>
		<marker id="CustomMarker-08" markerUnits="strokeWidth" markerWidth="15.000001" markerHeight="9" viewBox="-15 -4.5 15 9" orient="auto-start-reverse">
			<path d="M 0 -0 L -10 -3, -8 -0.5, -8 0.5, -10 3 Z" fill="#000000" stroke="#000000" stroke-linejoin="round" />
		</marker>
	</defs>
	<path d="M -153.452 -117.384 L 153.452 -117.384, 153.452 117.384, -153.452 117.384 Z" fill="none" stroke="#000000" stroke-width="3.20000005" stroke-linecap="round" stroke-linejoin="round" transform="matrix(0.3125 0 -0 0.3125 341.157 127.013)" />
	<ellipse cx="884.35666465759277" cy="631.50961875915527" rx="8.3999996185302734" ry="8.3999996185302734" stroke="none" fill="#000000" transform="matrix(0.3125 0 0 0.3125 -146.195 -70.3337)" />
	<ellipse cx="688.08994102478027" cy="344.57636070251465" rx="8.3999996185302734" ry="8.3999996185302734" stroke="none" fill="#000000" transform="matrix(0.3125 0 0 0.3125 -146.195 -70.3337)" />
	<ellipse cx="601.69003868103027" cy="754.17636680603027" rx="8.3999996185302734" ry="8.3999996185302734" stroke="none" fill="#000000" transform="matrix(0.3125 0 0 0.3125 -146.195 -70.3337)" />
	<ellipse cx="1170.2232418060303" cy="429.90973472595215" rx="8.3999996185302734" ry="8.3999996185302734" stroke="none" fill="#000000" transform="matrix(0.3125 0 0 0.3125 -146.195 -70.3337)" />
	<ellipse cx="1239.5567378997803" cy="902.44302940368652" rx="8.3999996185302734" ry="8.3999996185302734" stroke="none" fill="#000000" transform="matrix(0.3125 0 0 0.3125 -146.195 -70.3337)" />
	<path d="M 91.7334 -56.9294 C 59.8248 -52.7012, 46.9854 -18.645, 52.142 19.8517, 57.2986 58.3485, -41.7142 30.412, -91.7334 -23.617" fill="none" stroke="#000000" stroke-width="3.20000005" stroke-linecap="round" stroke-linejoin="round" stroke-dasharray="24.016, 14.384" transform="matrix(0.3125 0 -0 0.3125 53.2101 26.7565)" />
	<path d="M -56.6724 -116.8 C -50.2219 -92.3803, -26.7236 -55.5203, 6.91127 -28.1057, 40.5461 -0.691125, 49.7611 15.4351, 50.4523 50.6825, 51.1434 85.9298, 39.1639 107.124, 30.4096 116.8" fill="none" stroke="#000000" stroke-width="3.20000005" stroke-linecap="round" stroke-linejoin="round" stroke-dasharray="24.016, 14.384" transform="matrix(0.3125 0 -0 0.3125 26.2101 157.846)" />
	<path d="M -88.5333 41.0226 C -62.1617 40.604, -25.0461 36.697, 9.68117 21.2554, 44.4084 5.81371, 75.8535 -25.3762, 88.5333 -41.0226" fill="none" stroke="#000000" stroke-width="3.20000005" stroke-linecap="round" stroke-linejoin="round" stroke-dasharray="24.016, 14.384" transform="matrix(0.3125 0 -0 0.3125 241.167 203.013)" />
	<path d="M 33.0666 -66.1333 C 2.37235 -59.5571, -28.3868 -32.7979, -20.9602 -2.72582, -13.5336 27.3463, 22.4087 59.2526, 27.2067 66.1333" fill="none" stroke="#000000" stroke-width="3.20000005" stroke-linecap="round" stroke-linejoin="round" stroke-dasharray="24.016, 14.384" transform="matrix(0.3125 0 -0 0.3125 226.5 67.3464)" />
	<path d="M 111.029 -186.667 C 100.92 -178.236, 87.2206 -166.357, 66.9387 -145.914, 46.6568 -125.471, 29.2742 -96.5408, 22.0565 -72.4926, 14.8388 -48.4443, 10.0172 -23.4661, 4.57148 3.62659, -0.874217 30.7193, -4.58059 43.2852, -10.3047 62.6441, -16.0287 82.003, -25.9129 106.195, -33.7192 121.074, -41.5254 135.952, -52.3499 150.206, -69.4298 163.166, -86.5097 176.126, -105.265 183.257, -111.029 186.667" fill="none" stroke="#000000" stroke-width="3.20000005" stroke-linecap="round" stroke-linejoin="round" stroke-dasharray="24.016, 14.384" transform="matrix(0.3125 0 -0 0.3125 129.167 127.346)" />
	<path d="M -51.7496 0 L 51.7491 0" fill="none" stroke="#000000" stroke-width="3.20000005" stroke-linecap="round" stroke-linejoin="round" transform="matrix(0.3125 0 0 0.3125 318.375 127.997)" />
	<path d="M 0 0 L 282.667 -121.067" fill="none" stroke="#000000" stroke-width="3.20000005" stroke-linecap="round" stroke-linejoin="round" marker-start="url(#CustomMarker-01)" marker-end="url(#CustomMarker-02)" transform="matrix(0.3125 0 0 0.3125 41.8334 165.18)" />
	<path d="M 0 0 L 198.4 288" fill="none" stroke="#000000" stroke-width="3.20000005" stroke-linecap="round" stroke-linejoin="round" marker-start="url(#CustomMarker-03)" marker-end="url(#CustomMarker-04)" transform="matrix(0.3125 0 0 0.3125 68.1667 37.3464)" />
	<path d="M 0 0 L 355.2 270.933" fill="none" stroke="#000000" stroke-width="3.20000005" stroke-linecap="round" stroke-linejoin="round" marker-start="url(#CustomMarker-05)" marker-end="url(#CustomMarker-06)" transform="matrix(0.3125 0 0 0.3125 130.167 127.013)" />
	<path d="M 0 0 L 285.867 -201.6" fill="none" stroke="#000000" stroke-width="3.20000005" stroke-linecap="round" stroke-linejoin="round" marker-start="url(#CustomMarker-07)" marker-end="url(#CustomMarker-08)" transform="matrix(0.3125 0 0 0.3125 130.167 127.013)" />
	<path d="M -33.3745 -48.6105 C -6.37746 -65.5686, 29.77 -59.3769, 48.9368 -34.5114" fill="none" stroke="#000000" stroke-width="2.4000001" stroke-linecap="round" stroke-linejoin="round" transform="matrix(0.3125 0 -0 0.3125 130.167 127.013)" />
	<path d="M -50.6232 21.682 C -61.777 -2.14373, -53.1527 -30.1901, -30.2888 -44.4455" fill="none" stroke="#000000" stroke-width="2.4000001" stroke-linecap="round" stroke-linejoin="round" transform="matrix(0.3125 0 -0 0.3125 130.167 127.346)" />
	<path d="M 36.6753 27.8644 C 20.5865 47.2386, -8.8762 50.4692, -29.1314 35.0802, -35.0096 30.6142, -39.6794 24.8621, -42.7473 18.3088" fill="none" stroke="#000000" stroke-width="2.4000001" stroke-linecap="round" stroke-linejoin="round" transform="matrix(0.3125 0 -0 0.3125 130.167 127.346)" />
	<path d="M 33.1485 -23.5009 C 44.2697 -9.14898, 43.9254 10.5587, 32.3091 24.5472" fill="none" stroke="#000000" stroke-width="2.4000001" stroke-linecap="round" stroke-linejoin="round" transform="matrix(0.3125 0 -0 0.3125 130.167 127.346)" />
	<g transform="matrix(1 0 -0 1 181.229 93.8903)">
		<svg width="32.916275" height="36.0418549">
			<defs />
			<path d="M 6.4838 2.27703 L 4.39773 9.22566 C 4.28438 9.60291, 4.2277 9.85023, 4.2277 9.96764, 4.2277 10.0074, 4.245 10.0446, 4.27922 10.0799, 4.31382 10.1152, 4.34915 10.1329, 4.38559 10.1325, 4.43822 10.1329, 4.50079 10.1075, 4.57366 10.056, 4.71131 9.96211, 4.9417 9.72657, 5.26484 9.34932 L 5.47094 9.47299 C 5.18019 9.86606, 4.88613 10.184, 4.58875 10.4273, 4.29174 10.6706, 4.01387 10.792, 3.75477 10.792, 3.61749 10.792, 3.5045 10.7449, 3.41543 10.6507, 3.32636 10.5569, 3.28183 10.4233, 3.28183 10.2503, 3.28183 10.0269, 3.34256 9.72657, 3.46364 9.34932 L 3.70029 8.61913 C 3.11437 9.49875, 2.58071 10.1075, 2.09931 10.4446, 1.76807 10.6765, 1.45045 10.792, 1.14719 10.792, 0.84024 10.792, 0.572306 10.6599, 0.343752 10.3949, 0.115566 10.1299, 0.00110477 9.76963, 0.00110477 9.31399, 0.00110477 8.72954, 0.193223 8.10534, 0.577459 7.44176, 0.961694 6.77855, 1.46886 6.23863, 2.09931 5.82201, 2.5969 5.48856, 3.05364 5.32184, 3.4699 5.32147, 3.68852 5.32184, 3.87659 5.36527, 4.03411 5.45139, 4.19163 5.53788, 4.34731 5.68105, 4.50079 5.8809 L 5.09517 3.83164 C 5.13971 3.68663, 5.17614 3.57107, 5.20411 3.48421, 5.2527 3.32742, 5.27699 3.19787, 5.27699 3.09555, 5.27699 3.01348, 5.24681 2.94466, 5.18608 2.88945, 5.10143 2.8232, 4.99212 2.78971, 4.85852 2.78934, 4.76578 2.78971, 4.61193 2.80333, 4.39773 2.83056 L 4.39773 2.61268 Z M 4.23396 6.45799 C 4.23396 6.20698, 4.15924 6.00493, 4.00982 5.85182, 3.86039 5.69872, 3.67012 5.62216, 3.43935 5.6218, 2.92998 5.62216, 2.39963 6.03069, 1.84757 6.84701, 1.29588 7.66369, 1.01984 8.44468, 1.01984 9.19033, 1.01984 9.48513, 1.08683 9.71001, 1.22006 9.86495, 1.35366 10.0203, 1.51339 10.0976, 1.69925 10.0972, 2.11955 10.0976, 2.64733 9.6559, 3.28183 8.7726, 3.9167 7.8893, 4.23396 7.11789, 4.23396 6.45799 Z" stroke="none" fill="#000000" />
			<path d="M -0.660795 -2.0487 L 0.45979 -2.57962, 0.57191 -2.57962, 0.57191 1.19619 C 0.57191 1.44702, 0.582833 1.60325, 0.604268 1.66467, 0.625703 1.72629, 0.670427 1.77349, 0.738442 1.80646, 0.806456 1.83944, 0.944339 1.8582, 1.1525 1.86232 L 1.1525 1.98433, -0.579384 1.98433, -0.579384 1.86232 C -0.361945 1.8582, -0.221588 1.84006, -0.158109 1.80811, -0.0946288 1.77637, -0.0505226 1.7335, -0.0257902 1.6795, -0.000851631 1.62571, 0.0115145 1.46454, 0.0115145 1.19619 L 0.0115145 -1.21769 C 0.0115145 -1.54292, 0.000384927 -1.75171, -0.0222864 -1.84425, -0.0381564 -1.91432, -0.0670109 -1.96605, -0.10885 -1.99903, -0.150689 -2.03201, -0.201184 -2.0485, -0.26013 -2.0487, -0.343808 -2.0485, -0.460256 -2.01449, -0.609888 -1.94647 Z" stroke="none" fill="#000000" transform="matrix(1.12 0 0 1 7.7698 10.4259)" />
			<rect />
		</svg>
	</g>
	<g transform="matrix(1 0 -0 1 94.0425 56.8101)">
		<svg width="36.0418549" height="36.0418549">
			<defs />
			<path d="M 6.4838 2.27703 L 4.39773 9.22566 C 4.28438 9.60291, 4.2277 9.85023, 4.2277 9.96764, 4.2277 10.0074, 4.245 10.0446, 4.27922 10.0799, 4.31382 10.1152, 4.34915 10.1329, 4.38559 10.1325, 4.43822 10.1329, 4.50079 10.1075, 4.57366 10.056, 4.71131 9.96211, 4.9417 9.72657, 5.26484 9.34932 L 5.47094 9.47299 C 5.18019 9.86606, 4.88613 10.184, 4.58875 10.4273, 4.29174 10.6706, 4.01387 10.792, 3.75477 10.792, 3.61749 10.792, 3.5045 10.7449, 3.41543 10.6507, 3.32636 10.5569, 3.28183 10.4233, 3.28183 10.2503, 3.28183 10.0269, 3.34256 9.72657, 3.46364 9.34932 L 3.70029 8.61913 C 3.11437 9.49875, 2.58071 10.1075, 2.09931 10.4446, 1.76807 10.6765, 1.45045 10.792, 1.14719 10.792, 0.84024 10.792, 0.572306 10.6599, 0.343752 10.3949, 0.115566 10.1299, 0.00110477 9.76963, 0.00110477 9.31399, 0.00110477 8.72954, 0.193223 8.10534, 0.577459 7.44176, 0.961694 6.77855, 1.46886 6.23863, 2.09931 5.82201, 2.5969 5.48856, 3.05364 5.32184, 3.4699 5.32147, 3.68852 5.32184, 3.87659 5.36527, 4.03411 5.45139, 4.19163 5.53788, 4.34731 5.68105, 4.50079 5.8809 L 5.09517 3.83164 C 5.13971 3.68663, 5.17614 3.57107, 5.20411 3.48421, 5.2527 3.32742, 5.27699 3.19787, 5.27699 3.09555, 5.27699 3.01348, 5.24681 2.94466, 5.18608 2.88945, 5.10143 2.8232, 4.99212 2.78971, 4.85852 2.78934, 4.76578 2.78971, 4.61193 2.80333, 4.39773 2.83056 L 4.39773 2.61268 Z M 4.23396 6.45799 C 4.23396 6.20698, 4.15924 6.00493, 4.00982 5.85182, 3.86039 5.69872, 3.67012 5.62216, 3.43935 5.6218, 2.92998 5.62216, 2.39963 6.03069, 1.84757 6.84701, 1.29588 7.66369, 1.01984 8.44468, 1.01984 9.19033, 1.01984 9.48513, 1.08683 9.71001, 1.22006 9.86495, 1.35366 10.0203, 1.51339 10.0976, 1.69925 10.0972, 2.11955 10.0976, 2.64733 9.6559, 3.28183 8.7726, 3.9167 7.8893, 4.23396 7.11789, 4.23396 6.45799 Z" stroke="none" fill="#000000" />
			<path d="M 1.71442 1.12364 L 1.39186 1.98433, -1.32479 1.98433, -1.32479 1.86232 C -0.525518 1.15456, 0.0369388 0.576439, 0.362995 0.127958, 0.68905 -0.320524, 0.851872 -0.730464, 0.851872 -1.10227, 0.851872 -1.38567, 0.762629 -1.61856, 0.583731 -1.80117, 0.404834 -1.98357, 0.190898 -2.07488, -0.0582811 -2.07508, -0.284583 -2.07488, -0.487595 -2.01057, -0.667729 -1.88196, -0.847658 -1.75336, -0.980594 -1.56477, -1.06675 -1.31662 L -1.19247 -1.31662 C -1.13579 -1.72306, -0.990281 -2.03531, -0.755941 -2.25295, -0.521602 -2.4706, -0.228935 -2.57942, 0.121853 -2.57962, 0.495313 -2.57942, 0.807148 -2.46276, 1.05736 -2.22987, 1.30757 -1.99676, 1.43267 -1.72203, 1.43267 -1.40566, 1.43267 -1.17894, 1.37847 -0.952643, 1.26964 -0.726341, 1.10208 -0.369988, 0.830437 0.00697482, 0.454504 0.404755, -0.108983 1.00287, -0.461007 1.36355, -0.60157 1.48639 L 0.600632 1.48639 C 0.845071 1.48659, 1.01655 1.47794, 1.11507 1.46021, 1.21358 1.44269, 1.30262 1.40704, 1.38176 1.35304, 1.46091 1.29924, 1.52995 1.22278, 1.58869 1.12364 Z" stroke="none" fill="#000000" transform="matrix(1.12 0 0 1 8.43531 10.4259)" />
			<rect />
		</svg>
	</g>
	<g transform="matrix(1 0 -0 1 70.3216 134.143)">
		<svg width="32.916275" height="36.0418549">
			<defs />
			<path d="M 6.4838 2.27703 L 4.39773 9.22566 C 4.28438 9.60291, 4.2277 9.85023, 4.2277 9.96764, 4.2277 10.0074, 4.245 10.0446, 4.27922 10.0799, 4.31382 10.1152, 4.34915 10.1329, 4.38559 10.1325, 4.43822 10.1329, 4.50079 10.1075, 4.57366 10.056, 4.71131 9.96211, 4.9417 9.72657, 5.26484 9.34932 L 5.47094 9.47299 C 5.18019 9.86606, 4.88613 10.184, 4.58875 10.4273, 4.29174 10.6706, 4.01387 10.792, 3.75477 10.792, 3.61749 10.792, 3.5045 10.7449, 3.41543 10.6507, 3.32636 10.5569, 3.28183 10.4233, 3.28183 10.2503, 3.28183 10.0269, 3.34256 9.72657, 3.46364 9.34932 L 3.70029 8.61913 C 3.11437 9.49875, 2.58071 10.1075, 2.09931 10.4446, 1.76807 10.6765, 1.45045 10.792, 1.14719 10.792, 0.84024 10.792, 0.572306 10.6599, 0.343752 10.3949, 0.115566 10.1299, 0.00110477 9.76963, 0.00110477 9.31399, 0.00110477 8.72954, 0.193223 8.10534, 0.577459 7.44176, 0.961694 6.77855, 1.46886 6.23863, 2.09931 5.82201, 2.5969 5.48856, 3.05364 5.32184, 3.4699 5.32147, 3.68852 5.32184, 3.87659 5.36527, 4.03411 5.45139, 4.19163 5.53788, 4.34731 5.68105, 4.50079 5.8809 L 5.09517 3.83164 C 5.13971 3.68663, 5.17614 3.57107, 5.20411 3.48421, 5.2527 3.32742, 5.27699 3.19787, 5.27699 3.09555, 5.27699 3.01348, 5.24681 2.94466, 5.18608 2.88945, 5.10143 2.8232, 4.99212 2.78971, 4.85852 2.78934, 4.76578 2.78971, 4.61193 2.80333, 4.39773 2.83056 L 4.39773 2.61268 Z M 4.23396 6.45799 C 4.23396 6.20698, 4.15924 6.00493, 4.00982 5.85182, 3.86039 5.69872, 3.67012 5.62216, 3.43935 5.6218, 2.92998 5.62216, 2.39963 6.03069, 1.84757 6.84701, 1.29588 7.66369, 1.01984 8.44468, 1.01984 9.19033, 1.01984 9.48513, 1.08683 9.71001, 1.22006 9.86495, 1.35366 10.0203, 1.51339 10.0976, 1.69925 10.0972, 2.11955 10.0976, 2.64733 9.6559, 3.28183 8.7726, 3.9167 7.8893, 4.23396 7.11789, 4.23396 6.45799 Z" stroke="none" fill="#000000" />
			<path d="M -1.1231 -1.63649 C -0.991607 -1.93741, -0.8259 -2.16989, -0.625567 -2.33374, -0.425235 -2.49739, -0.175643 -2.57942, 0.123207 -2.57962, 0.492338 -2.57942, 0.775318 -2.46297, 0.972147 -2.23007, 1.12178 -2.05612, 1.19639 -1.87042, 1.19639 -1.67277, 1.19639 -1.34713, 0.985956 -1.01076, 0.56468 -0.663686, 0.847867 -0.555688, 1.0618 -0.401728, 1.20669 -0.201808, 1.35158 -0.00168145, 1.42393 0.233483, 1.42393 0.503684, 1.42393 0.890747, 1.29717 1.22608, 1.04346 1.50947, 0.713075 1.87901, 0.234296 2.06348, -0.392877 2.06348, -0.703062 2.06348, -0.914112 2.02617, -1.02623 1.95156, -1.13835 1.87695, -1.19441 1.79657, -1.19441 1.71063, -1.19441 1.64715, -1.16762 1.59109, -1.11444 1.54265, -1.06127 1.49442, -0.997378 1.4701, -0.922769 1.4699, -0.86609 1.4701, -0.808381 1.47897, -0.749436 1.49628, -0.710894 1.50741, -0.623712 1.5476, -0.48789 1.61685, -0.352068 1.6861, -0.258085 1.72732, -0.206147 1.74031, -0.122469 1.76463, -0.0330198 1.77679, 0.0622001 1.77658, 0.293036 1.77679, 0.493987 1.69002, 0.664847 1.51627, 0.835913 1.34273, 0.921239 1.13704, 0.921239 0.899403, 0.921239 0.725864, 0.881667 0.556653, 0.802318 0.391564, 0.743578 0.268726, 0.679068 0.175155, 0.608786 0.111263, 0.511506 0.0234631, 0.377951 -0.056093, 0.208121 -0.127611, 0.0382921 -0.198923, -0.134835 -0.234785, -0.311466 -0.234991 L -0.420082 -0.234991, -0.420082 -0.33392 C -0.241184 -0.355767, -0.0618743 -0.418217, 0.118054 -0.521681, 0.298189 -0.624938, 0.428858 -0.749219, 0.510475 -0.894316, 0.592092 -1.03941, 0.632695 -1.19873, 0.632695 -1.37268, 0.632695 -1.59898, 0.559734 -1.7818, 0.413607 -1.92154, 0.267685 -2.06107, 0.085902 -2.13094, -0.131537 -2.13114, -0.482325 -2.13094, -0.775611 -1.94854, -1.01098 -1.58373 Z" stroke="none" fill="#000000" transform="matrix(1.12 0 0 1 8.30299 10.4259)" />
			<rect />
		</svg>
	</g>
	<g transform="matrix(1 0 -0 1 186.826 150.643)">
		<svg width="36.0418549" height="36.0418549">
			<defs />
			<path d="M 6.4838 2.27703 L 4.39773 9.22566 C 4.28438 9.60291, 4.2277 9.85023, 4.2277 9.96764, 4.2277 10.0074, 4.245 10.0446, 4.27922 10.0799, 4.31382 10.1152, 4.34915 10.1329, 4.38559 10.1325, 4.43822 10.1329, 4.50079 10.1075, 4.57366 10.056, 4.71131 9.96211, 4.9417 9.72657, 5.26484 9.34932 L 5.47094 9.47299 C 5.18019 9.86606, 4.88613 10.184, 4.58875 10.4273, 4.29174 10.6706, 4.01387 10.792, 3.75477 10.792, 3.61749 10.792, 3.5045 10.7449, 3.41543 10.6507, 3.32636 10.5569, 3.28183 10.4233, 3.28183 10.2503, 3.28183 10.0269, 3.34256 9.72657, 3.46364 9.34932 L 3.70029 8.61913 C 3.11437 9.49875, 2.58071 10.1075, 2.09931 10.4446, 1.76807 10.6765, 1.45045 10.792, 1.14719 10.792, 0.84024 10.792, 0.572306 10.6599, 0.343752 10.3949, 0.115566 10.1299, 0.00110477 9.76963, 0.00110477 9.31399, 0.00110477 8.72954, 0.193223 8.10534, 0.577459 7.44176, 0.961694 6.77855, 1.46886 6.23863, 2.09931 5.82201, 2.5969 5.48856, 3.05364 5.32184, 3.4699 5.32147, 3.68852 5.32184, 3.87659 5.36527, 4.03411 5.45139, 4.19163 5.53788, 4.34731 5.68105, 4.50079 5.8809 L 5.09517 3.83164 C 5.13971 3.68663, 5.17614 3.57107, 5.20411 3.48421, 5.2527 3.32742, 5.27699 3.19787, 5.27699 3.09555, 5.27699 3.01348, 5.24681 2.94466, 5.18608 2.88945, 5.10143 2.8232, 4.99212 2.78971, 4.85852 2.78934, 4.76578 2.78971, 4.61193 2.80333, 4.39773 2.83056 L 4.39773 2.61268 Z M 4.23396 6.45799 C 4.23396 6.20698, 4.15924 6.00493, 4.00982 5.85182, 3.86039 5.69872, 3.67012 5.62216, 3.43935 5.6218, 2.92998 5.62216, 2.39963 6.03069, 1.84757 6.84701, 1.29588 7.66369, 1.01984 8.44468, 1.01984 9.19033, 1.01984 9.48513, 1.08683 9.71001, 1.22006 9.86495, 1.35366 10.0203, 1.51339 10.0976, 1.69925 10.0972, 2.11955 10.0976, 2.64733 9.6559, 3.28183 8.7726, 3.9167 7.8893, 4.23396 7.11789, 4.23396 6.45799 Z" stroke="none" fill="#000000" />
			<path d="M 1.76188 0.335504 L 1.76188 0.803771, 1.14377 0.803771, 1.14377 1.98433, 0.583378 1.98433, 0.583378 0.803771, -1.36574 0.803771, -1.36574 0.381671, 0.770314 -2.57962, 1.14377 -2.57962, 1.14377 0.335504 Z M 0.583378 0.335504 L 0.583378 -1.88382, -1.03289 0.335504 Z" stroke="none" fill="#000000" transform="matrix(1.12 0 0 1 8.47611 10.4259)" />
			<rect />
		</svg>
	</g>
	<g transform="matrix(1 0 -0 1 153.238 120.177)">
		<svg width="21.0837193" height="21.0837193">
			<defs />
			<path d="M 4.92606 5.4628 L 5.82335 5.4628, 4.52563 8.34236 C 4.58636 9.4222, 4.77848 9.96211, 5.10162 9.96175, 5.21497 9.96211, 5.32244 9.90433, 5.42328 9.7884, 5.5245 9.67283, 5.58522 9.52819, 5.6051 9.35521 L 5.85389 9.35521 C 5.73244 10.3136, 5.45162 10.792, 5.01071 10.792, 4.85724 10.792, 4.71591 10.7137, 4.58636 10.5569, 4.45717 10.4001, 4.34382 9.85023, 4.24665 8.90767, 3.50321 10.1642, 2.66628 10.792, 1.73624 10.792, 1.21509 10.792, 0.794421 10.618, 0.47496 10.2683, 0.1555 9.91905, -0.00423026 9.45164, -0.00423026 8.86645, -0.00423026 8.29746, 0.143355 7.74503, 0.438524 7.20916, 0.733694 6.67329, 1.10174 6.22502, 1.54228 5.8636, 1.9832 5.50255, 2.47012 5.32184, 3.00378 5.32147, 3.3836 5.32184, 3.68171 5.43593, 3.89812 5.66338, 4.11453 5.8912, 4.26285 6.24452, 4.34382 6.72298 Z M 4.11342 7.17052 C 4.09318 6.88418, 4.00007 6.56251, 3.83445 6.20514, 3.66883 5.84814, 3.42408 5.66927, 3.10057 5.6689, 2.62764 5.66927, 2.14955 6.11019, 1.66668 6.99128, 1.18381 7.87274, 0.942006 8.64894, 0.942006 9.31988, 0.942006 9.68939, 1.02187 9.98199, 1.1816 10.1977, 1.34133 10.4137, 1.56032 10.5215, 1.83929 10.5212, 2.13041 10.5215, 2.3932 10.3754, 2.62764 10.0828, 2.86245 9.79061, 3.1878 9.18886, 3.60405 8.27759 Z" stroke="none" fill="#000000" />
			<rect />
		</svg>
	</g>
	<g transform="matrix(1 0 -0 1 121.265 93.9238)">
		<svg width="27.1116257" height="38.9441795">
			<defs />
			<path d="M 0.912194 13.23 L -0.00349486 13.23 C 0.30014 12.7394, 0.540839 12.1936, 0.718236 11.5929 L 2.54336 5.5688 C 2.80246 4.71715, 3.0369 4.07749, 3.24705 3.64946, 3.45757 3.22179, 3.74464 2.88614, 4.10827 2.6425, 4.4719 2.39922, 4.90655 2.2774, 5.41187 2.27703, 5.9172 2.2774, 6.33051 2.41578, 6.65181 2.69255, 6.97348 2.96932, 7.13394 3.34141, 7.13394 3.80808, 7.13394 4.84081, 6.48324 5.58094, 5.18148 6.02811, 5.98602 6.40536, 6.38829 6.98834, 6.38829 7.77705, 6.38829 8.53117, 6.10931 9.22235, 5.55136 9.85023, 4.99341 10.4785, 4.29229 10.792, 3.44727 10.792, 3.21282 10.792, 2.98537 10.7648, 2.76492 10.7096, 2.54483 10.6548, 2.29309 10.5098, 2.01006 10.2738, 1.62583 11.6518, 1.25999 12.6374, 0.912194 13.23 Z M 2.17973 9.80275 C 2.45871 10.2584, 2.85104 10.4862, 3.35599 10.4858, 3.95848 10.4862, 4.45276 10.1193, 4.83883 9.38503, 5.22491 8.65115, 5.41776 8.01112, 5.41776 7.46495, 5.41776 6.85694, 5.21792 6.41529, 4.81749 6.14, 4.55912 6.19152, 4.37105 6.21692, 4.25365 6.21655, 3.99491 6.21692, 3.86536 6.13043, 3.86536 5.95745, 3.86536 5.80066, 3.97467 5.72227, 4.19292 5.7219, 4.41154 5.72227, 4.64193 5.77932, 4.8841 5.89267, 5.26429 5.69283, 5.58669 5.35349, 5.85169 4.8743, 6.11668 4.39548, 6.2488 3.92807, 6.2488 3.47243, 6.2488 3.18241, 6.17519 2.95386, 6.02761 2.78677, 5.88002 2.62004, 5.68091 2.5365, 5.42991 2.53613, 5.16345 2.5365, 4.90876 2.63955, 4.66622 2.84565, 4.42368 3.05176, 4.22752 3.35429, 4.07772 3.75251, 3.9283 4.1511, 3.68171 4.90559, 3.33796 6.01634 Z" stroke="none" fill="#000000" />
			<rect />
		</svg>
	</g>
	<g transform="matrix(1 0 -0 1 134.441 139.094)">
		<svg width="21.0837193" height="30.0139503">
			<defs />
			<path d="M 3.6922 5.6218 C 3.61123 5.50034, 3.42537 5.27657, 3.13425 4.95049, 2.62892 4.38959, 2.37608 3.90856, 2.37608 3.50776, 2.37608 3.12353, 2.50747 2.8221, 2.77025 2.60422, 3.03303 2.38634, 3.39703 2.2774, 3.86187 2.27703, 4.27444 2.2774, 4.64248 2.36389, 4.96562 2.5365, 5.28913 2.70948, 5.4507 2.91337, 5.4507 3.14855, 5.4507 3.27847, 5.40322 3.38373, 5.30827 3.46396, 5.21332 3.54457, 5.10106 3.58468, 4.97151 3.58431, 4.77755 3.58468, 4.60163 3.46507, 4.44411 3.22511, 4.24205 2.91926, 4.07643 2.73303, 3.94688 2.66605, 3.81733 2.59943, 3.68189 2.56594, 3.54056 2.56557, 3.31827 2.56594, 3.13535 2.63366, 2.99181 2.7691, 2.84828 2.90454, 2.77651 3.07642, 2.77651 3.28399, 2.77651 3.45329, 2.83319 3.61707, 2.94618 3.77606, 3.05953 3.93506, 3.32232 4.18938, 3.73452 4.53828, 4.19163 4.9273, 4.53207 5.31227, 4.75658 5.69283, 4.98108 6.07375, 5.09297 6.53896, 5.09297 7.08807, 5.09297 7.99125, 4.74627 8.83443, 4.05288 9.61763, 3.35949 10.4008, 2.5947 10.792, 1.75777 10.792, 1.19982 10.792, 0.767368 10.6268, 0.460053 10.2948, 0.153106 9.96322, -0.000735104 9.52819, -0.000735104 8.99012, -0.000735104 8.22496, 0.30474 7.53414, 0.914953 6.91767, 1.52517 6.30157, 2.45116 5.86949, 3.6922 5.6218 Z M 3.81328 5.84556 C 3.13829 5.97144, 2.59875 6.22575, 2.19427 6.60852, 1.79016 6.99128, 1.48468 7.43698, 1.27858 7.94524, 1.07248 8.45388, 0.969424 8.93933, 0.969424 9.40232, 0.969424 10.1406, 1.26459 10.5098, 1.85456 10.5094, 2.47729 10.5098, 3.00322 10.078, 3.43162 9.21425, 3.86003 8.35083, 4.07423 7.56727, 4.07423 6.86431, 4.07423 6.48375, 3.98737 6.14441, 3.81328 5.84556 Z" stroke="none" fill="#000000" />
			<rect />
		</svg>
	</g>
	<g transform="matrix(1 0 -0 1 101.587 114.177)">
		<svg width="17.9581375" height="30.0139503">
			<defs />
			<path d="M 0.217699 6.94675 L -0.000550121 6.88197 C 0.0399345 6.4348, 0.152187 6.06308, 0.336208 5.76644, 0.520229 5.47016, 0.757616 5.32184, 1.04837 5.32147, 1.29937 5.32184, 1.51873 5.43777, 1.70643 5.66927, 1.8945 5.90114, 2.0027 6.33469, 2.03104 6.97067, 2.05938 7.60665, 2.07337 8.29562, 2.07337 9.03722, 2.07337 9.2183, 2.06343 9.49507, 2.04319 9.86753, 3.05788 8.69421, 3.56504 7.78919, 3.56504 7.15285, 3.56504 7.01962, 3.53081 6.83118, 3.46199 6.58754, 3.39721 6.34463, 3.36483 6.13043, 3.36483 5.94567, 3.36483 5.74178, 3.42482 5.58683, 3.54406 5.48084, 3.66331 5.37484, 3.80574 5.32184, 3.97136 5.32147, 4.31916 5.32184, 4.49287 5.56733, 4.49287 6.05756, 4.49287 6.54853, 4.32836 7.10537, 3.99859 7.72736, 3.6692 8.34972, 3.02954 9.17892, 2.07925 10.215, 1.63098 12.2407, 1.15989 13.2535, 0.666342 13.2535, 0.440364 13.2535, 0.327007 13.0986, 0.327007 12.7883, 0.327007 12.3489, 0.790004 11.4969, 1.71563 10.2326, 1.73992 9.77773, 1.75207 9.44391, 1.75207 9.23155, 1.75207 8.82376, 1.72299 8.28789, 1.6641 7.62431, 1.60559 6.9611, 1.51578 6.543, 1.39433 6.37002, 1.27288 6.19741, 1.13339 6.11092, 0.975865 6.11056, 0.640211 6.11092, 0.387734 6.38953, 0.217699 6.94675 Z" stroke="none" fill="#000000" />
			<rect />
		</svg>
	</g>
	<ellipse cx="1486.6221675872803" cy="696.61118125915527" rx="8.3999996185302734" ry="8.3999996185302734" stroke="none" fill="#000000" transform="matrix(0.3125 0 0 0.3125 -146.195 -70.3337)" />
	<g transform="matrix(1 0 -0 1 347.281 120.828)">
		<svg width="75.111618" height="39.1674347">
			<defs />
			<path d="M 2.79323 10.7856 C 3.60293 10.9151, 4.07107 10.9534, 4.20063 10.9063, 4.33018 10.8592, 4.39495 10.7561, 4.39495 10.5971 L 4.39495 6.73417, 2.26031 6.73417 C 2.22792 7.99434, 2.09837 8.99247, 1.87166 9.72855, 1.64494 10.4676, 1.15913 11.2567, 0.41421 12.1046 L 0.317047 11.9633 C 0.900025 11.0859, 1.27396 10.232, 1.43589 9.39879, 1.59783 8.56849, 1.66261 7.6793, 1.62728 6.73417, 1.40351 6.73711, 1.11202 6.78422, 0.755753 6.87549 L 0.317047 6.45151, 1.62728 6.45151 C 1.62728 5.79492, 1.62728 5.1295, 1.62728 4.4523, 1.62728 3.77805, 1.61255 3.0773, 1.58017 2.35299 L 2.21025 2.82409, 2.64602 2.82409 C 2.84034 2.19989, 2.96989 1.58747, 3.03467 0.986821 L 4.05341 1.45791, 3.6677 1.64635 C 3.37621 2.088, 3.11711 2.48254, 2.8904 2.82409 L 4.3449 2.82409, 4.7836 2.4001, 5.41369 3.01252, 5.02504 3.24807, 5.02504 10.6914 C 5.02504 10.974, 4.96026 11.2096, 4.83071 11.398, 4.70116 11.5864, 4.42734 11.7601, 4.0063 11.9162, 3.87675 11.5099, 3.47337 11.1948, 2.79323 10.974 Z M 2.26031 3.10674 L 2.26031 6.45151, 4.39495 6.45151, 4.39495 3.10674 Z M 2.79323 3.86049 C 3.1495 4.11371, 3.41743 4.34336, 3.59409 4.54652, 3.77075 4.75263, 3.85908 4.93223, 3.85908 5.08534, 3.85908 5.1825, 3.83553 5.29438, 3.78842 5.41805, 3.74131 5.54465, 3.64415 5.63004, 3.49693 5.67715, 3.35266 5.72426, 3.24666 5.54465, 3.18189 5.13245, 3.11711 4.75852, 2.95517 4.36692, 2.69607 3.95471 Z M 2.79323 7.25237 C 3.24666 7.63219, 3.56465 7.93251, 3.74131 8.15039, 3.91797 8.37122, 3.98274 8.58321, 3.93269 8.78637, 3.88558 8.99247, 3.77075 9.12497, 3.59409 9.1868, 3.41743 9.25157, 3.31144 9.09258, 3.27905 8.71276, 3.21427 8.37122, 3.00523 7.92957, 2.64602 7.3937 Z M 7.35401 1.3637 C 7.80744 1.6493, 8.14898 1.89368, 8.37275 2.09684, 8.59946 2.30294, 8.69663 2.5061, 8.66424 2.70926, 8.6348 2.91536, 8.57002 3.04786, 8.47286 3.10969, 8.37569 3.17446, 8.29325 3.20391, 8.22848 3.20096, 8.09893 3.20391, 8.00176 3.04786, 7.93699 2.72987, 7.83983 2.35594, 7.61311 1.93195, 7.25685 1.45791 Z M 9.63587 3.53073 L 10.3631 2.91831, 11.2346 3.81338, 6.67387 3.81338 C 6.41477 3.81633, 6.10856 3.86344, 5.75229 3.95471 L 5.31653 3.53073 Z M 9.58582 10.6914 C 9.58582 11.0388, 9.71537 11.2096, 9.97447 11.2096 L 10.4102 11.2096 C 10.6046 11.2096, 10.7282 11.0623, 10.7753 10.765, 10.8254 10.4676, 10.8489 10.0024, 10.8489 9.37229 L 11.0904 9.37229 C 11.1228 9.87872, 11.1699 10.2791, 11.2346 10.5765, 11.2994 10.8768, 11.479 11.0535, 11.7705 11.1153, 11.5762 11.398, 11.3907 11.5805, 11.214 11.6571, 11.0374 11.7366, 10.9137 11.7749, 10.8489 11.7749 L 9.78014 11.7749 C 9.2325 11.7749, 8.95573 11.5246, 8.95573 11.0211 L 8.95573 5.55643, 7.20974 5.55643 C 7.20974 6.43973, 7.19502 7.23176, 7.16263 7.9384, 7.13024 8.64504, 6.9683 9.35168, 6.67681 10.0583, 6.38532 10.765, 5.80234 11.4304, 4.92788 12.0575 L 4.83071 11.9162 C 5.47847 11.2891, 5.91717 10.6707, 6.14094 10.0583, 6.36766 9.4459, 6.49721 8.7157, 6.5296 7.86773, 6.56198 7.01977, 6.56198 6.01575, 6.5296 4.84979 L 7.25685 5.27377, 8.90567 5.27377, 9.34438 4.84979, 9.97447 5.46221, 9.58582 5.74487 Z" stroke="none" fill="#000000" />
			<path d="M 19.7415 4.52002 C 19.7415 4.96167, 19.7739 5.54465, 19.8358 6.26307 L 22.1176 6.02752, 22.7477 5.32088, 23.7193 6.12174, 19.8858 6.49862 C 19.983 7.47614, 20.1449 8.24461, 20.3716 8.80698, 21.0842 8.18278, 21.6495 7.52325, 22.0705 6.82838 L 22.942 7.67635, 22.5063 7.72346 C 21.8938 8.29172, 21.2785 8.85703, 20.6631 9.4194, 21.2461 10.2085, 21.9233 10.7561, 22.7006 11.0682 L 23.3807 8.80698, 23.5721 8.85409 C 23.5073 9.57839, 23.4691 10.1761, 23.4514 10.6472, 23.4367 11.1183, 23.5103 11.4922, 23.6693 11.7749, 23.7046 11.8396, 23.7193 11.8868, 23.7193 11.9162, 23.7193 12.0428, 23.5515 12.0811, 23.21 12.034, 22.8714 11.9869, 22.4179 11.7984, 21.8526 11.4687, 21.2873 11.1389, 20.7102 10.6148, 20.1272 9.89049, 19.5472 10.2703, 18.9583 10.5854, 18.3577 10.8356, 17.76 11.0859, 17.0092 11.3362, 16.1023 11.5864 L 16.0523 11.398 C 17.445 10.8975, 18.6904 10.2085, 19.7886 9.32518, 19.5001 8.48016, 19.3058 7.57036, 19.2057 6.59284 L 17.2182 6.82838, 16.8296 7.01682, 16.2937 6.63995, 19.1586 6.35729 C 19.1262 5.92153, 19.0938 5.32383, 19.0614 4.56713 L 17.654 4.66135, 17.3625 4.84979, 16.9268 4.47292, 19.0614 4.33159 C 19.029 3.23629, 18.9966 2.13511, 18.9642 1.03393 L 20.0801 1.55213, 19.6915 1.8819 C 19.6915 2.54437, 19.7091 3.34523, 19.7415 4.28448 L 21.8261 4.09604, 22.4562 3.3894, 23.4278 4.23737 Z M 20.4688 1.83479 L 20.5159 1.69346 C 21.5199 1.94667, 22.0705 2.16161, 22.1677 2.33238, 22.2648 2.5061, 22.3119 2.65332, 22.3119 2.77698, 22.3119 2.93597, 22.2796 3.09497, 22.2148 3.25102, 22.15 3.41001, 22.0852 3.48656, 22.0205 3.48362, 21.9557 3.48656, 21.8585 3.35996, 21.729 3.10674, 21.5052 2.7652, 21.0842 2.34122, 20.4688 1.83479 Z M 15.1307 1.22237 L 16.1023 1.83479 C 15.8432 1.93195, 15.5694 2.247, 15.275 2.77698, 14.9864 3.34523, 14.4535 4.14609, 13.6762 5.17956 L 15.6636 4.99112 C 16.0523 4.36692, 16.3614 3.73683, 16.5852 3.10674 L 17.4597 3.71916 C 17.2359 3.84872, 16.8473 4.30214, 16.2937 5.08534, 15.7461 5.87442, 15.0335 6.81661, 14.1591 7.9119, 14.6125 7.85301, 15.6165 7.6793, 17.1682 7.3937 L 17.1682 7.58213 C 16.2967 7.8059, 15.6165 8.00317, 15.1307 8.17395, 14.6478 8.34766, 14.162 8.5891, 13.6762 8.9012 L 13.0932 7.9119 C 13.4495 7.82063, 13.8617 7.48497, 14.3298 6.90199, 14.8009 6.32196, 15.2131 5.74781, 15.5665 5.17956, 15.2131 5.24433, 14.8392 5.33266, 14.4506 5.4416, 14.0619 5.55349, 13.7086 5.74781, 13.3847 6.02752 L 12.8488 5.13245 C 13.2081 5.07356, 13.6203 4.62602, 14.0884 3.79277, 14.5595 2.96247, 14.9069 2.10567, 15.1307 1.22237 Z M 12.8017 10.2203 C 13.7086 10.0966, 14.4358 9.98766, 14.9864 9.89344, 15.537 9.79922, 16.4262 9.6255, 17.654 9.37229 L 17.7011 9.56073 C 16.2466 9.97293, 15.1896 10.2939, 14.5242 10.5294, 13.8617 10.765, 13.4495 10.9593, 13.2876 11.1153 Z" stroke="none" fill="#000000" />
			<rect />
		</svg>
	</g>
	<g transform="matrix(1 0 -0 1 347.281 140.188)">
		<svg width="78.0139389" height="39.1674347">
			<defs />
			<path d="M 2.55474 1.17526 L 3.62354 1.59924, 3.28199 1.97612, 3.28199 4.99112 C 3.86497 4.33453, 4.27129 3.73683, 4.498 3.20096 L 5.32242 3.86049 C 5.06332 3.95766, 4.78949 4.11371, 4.498 4.33159, 4.20651 4.5848, 3.8002 4.89984, 3.28199 5.27377, 3.25255 6.50156, 3.18777 7.41136, 3.08767 8.00612, 3.86497 8.41833, 4.38317 8.78048, 4.64228 9.09258, 4.90138 9.40762, 5.00737 9.69028, 4.96026 9.94055, 4.91316 10.1938, 4.82188 10.3351, 4.69233 10.3645, 4.56278 10.3969, 4.38612 10.1437, 4.15646 9.60784, 3.89736 9.07786, 3.52637 8.62148, 3.04056 8.24166, 2.71668 9.71972, 1.90699 10.9446, 0.61148 11.9162 L 0.561427 11.7278 C 1.50361 10.6943, 2.08659 9.69911, 2.31331 8.73926, 2.54002 7.78235, 2.64602 6.69883, 2.62835 5.48871, 2.61068 4.28153, 2.58713 2.84175, 2.55474 1.17526 Z M 1.58311 4.09604 C 1.58311 4.53769, 1.57722 4.9234, 1.55956 5.25316, 1.54189 5.58293, 1.47712 5.84203, 1.36523 6.03047, 1.25335 6.21891, 1.0973 6.34551, 0.90297 6.40734, 0.708643 6.47212, 0.573204 6.44856, 0.490763 6.33668, 0.408321 6.22774, 0.3671 6.15708, 0.3671 6.12174, 0.3671 5.99808, 0.464264 5.85675, 0.65859 5.69776, 0.917691 5.47988, 1.16207 4.94695, 1.38879 4.09604 Z M 5.76112 10.7856 C 6.66798 10.9151, 7.24507 10.9681, 7.4865 10.9505, 7.72794 10.9357, 7.84866 10.7414, 7.84866 10.3616 L 7.84866 2.8712, 6.39121 2.8712 C 5.97312 2.87414, 5.58446 2.92125, 5.22525 3.01252 L 4.78949 2.58854, 9.93914 2.58854, 10.6193 1.92901, 11.5409 2.8712, 8.57885 2.8712, 8.57885 10.7385 C 8.57885 11.0859, 8.48169 11.3686, 8.28736 11.5864, 8.09304 11.8073, 7.80155 11.981, 7.4129 12.1046, 7.15379 11.5717, 6.58848 11.1948, 5.71107 10.974 Z" stroke="none" fill="#000000" />
			<path d="M 18.34 8.75987 L 18.34 10.7385, 21.5464 10.7385, 21.5464 8.75987 Z M 16.0081 2.8712 L 18.0485 2.8712 C 18.0485 2.15278, 18.0338 1.5698, 18.0014 1.12815 L 18.9731 1.59924, 18.6816 1.8819, 18.6816 2.8712, 21.0135 2.8712 C 21.0135 2.247, 20.9988 1.68168, 20.9634 1.17526 L 22.0322 1.64635, 21.6436 1.92901, 21.6436 2.8712, 22.6152 2.8712, 23.1982 2.30588, 24.0727 3.15385, 21.6436 3.15385 C 21.6436 3.43945, 21.6612 3.80161, 21.6936 4.23737 L 21.0135 4.47292, 21.0135 3.15385, 18.6816 3.15385, 18.6816 4.33159, 18.0014 4.61424 C 18.0338 4.05188, 18.0485 3.56606, 18.0485 3.15385 L 17.6128 3.15385 C 17.1917 3.1568, 16.8031 3.20391, 16.4468 3.29518 Z M 19.6032 3.57784 L 20.4776 4.14315, 20.0419 4.42581 C 21.1754 5.65359, 22.518 6.40734, 24.0727 6.68706 L 24.0727 6.82838 C 23.6192 6.89316, 23.313 7.0816, 23.1511 7.3937, 21.726 6.58106, 20.6425 5.65359, 19.8946 4.61424, 18.6639 6.12469, 17.3213 7.19348, 15.8638 7.81768 L 15.7667 7.67635 C 16.6088 7.17582, 17.3625 6.57223, 18.025 5.86559, 18.6904 5.15895, 19.2145 4.39636, 19.6032 3.57784 Z M 17.5627 7.01682 L 20.9163 7.01682, 21.4493 6.49862, 22.2766 7.29948, 19.0702 7.29948 C 18.6492 7.30242, 18.2929 7.34953, 18.0014 7.44081 Z M 22.2266 10.3616 C 22.2266 10.6472, 22.2442 11.0859, 22.2766 11.6806 L 21.5464 11.9162, 21.5464 11.0211, 18.34 11.0211, 18.34 11.7278, 17.6128 12.0104 C 17.6452 11.3833, 17.6599 10.7591, 17.6599 10.129, 17.6599 9.50184, 17.6452 8.82464, 17.6128 8.10034 L 18.34 8.47721, 21.4493 8.47721, 21.7908 8.05323, 22.6152 8.61854, 22.2266 8.9012 Z M 14.5036 2.58854 C 14.5036 2.30883, 14.4888 1.80535, 14.4535 1.08104 L 15.5223 1.55213, 15.1837 1.8819, 15.1837 4.3787, 15.8138 4.3787, 16.2996 3.9076, 17.0769 4.66135, 15.1837 4.66135, 15.1837 8.9012, 16.9326 8.33588, 17.0298 8.52432 C 14.6979 9.46945, 13.4348 10.1143, 13.2404 10.4558 L 12.6575 9.60784 C 13.2081 9.45473, 13.8234 9.28102, 14.5036 9.08963 L 14.5036 4.66135, 14.3092 4.66135 C 13.8882 4.6643, 13.4995 4.71141, 13.1433 4.80268 L 12.7046 4.3787, 14.5036 4.3787 Z" stroke="none" fill="#000000" />
			<rect />
		</svg>
	</g>
	<g transform="matrix(1 0 -0 1 317.182 99.1611)">
		<svg width="144.097641" height="39.1674347">
			<defs />
			<path d="M 10.8607 2.07034 L 10.8607 9.89049 C 10.8607 10.5206, 10.8784 11.0859, 10.9108 11.5864 L 10.1806 11.9633, 10.1806 11.0211, 2.26325 11.0211, 2.26325 11.7749, 1.53306 12.0575 C 1.56839 11.4304, 1.58311 10.7885, 1.58311 10.126 L 1.58311 3.01252 C 1.58311 2.48254, 1.56839 1.88484, 1.53306 1.22237 L 2.26325 1.64635, 10.0834 1.64635, 10.425 1.17526, 11.2023 1.78768 Z M 2.26325 1.92901 L 2.26325 7.72346 C 3.78547 7.09926, 4.96615 6.39262, 5.80823 5.60354, 5.39014 5.04117, 5.01621 4.39636, 4.69233 3.67206, 4.17413 4.46114, 3.62354 5.12067, 3.04056 5.65065 L 2.89334 5.55643 C 3.41154 4.89984, 3.85025 4.21676, 4.20651 3.51012, 4.56278 2.80348, 4.77183 2.27644, 4.8366 1.92901 Z M 2.26325 10.7385 L 10.1806 10.7385, 10.1806 1.92901, 4.93377 1.92901, 5.76112 2.35299, 5.46963 2.49432 C 5.27531 2.77992, 5.13104 3.00075, 5.03093 3.15385 L 7.60722 3.15385, 7.94582 2.72987, 8.67602 3.3894, 8.28736 3.62495 C 7.73677 4.38164, 7.16852 5.07356, 6.58554 5.69776, 7.5925 6.42207, 8.74079 6.84605, 10.0363 6.96971 L 10.0363 7.15815 C 9.55048 7.19348, 9.24133 7.38192, 9.11178 7.72346, 7.98115 7.31714, 6.99186 6.75183, 6.14978 6.02752, 5.01621 6.91083, 3.7207 7.55269, 2.26325 7.95901 Z M 4.88666 3.43651 C 5.34008 4.22559, 5.77879 4.83801, 6.19689 5.27377, 6.65031 4.77324, 7.10374 4.16082, 7.55717 3.43651 Z M 5.17815 7.06393 C 5.95545 7.22292, 6.50604 7.3672, 6.82992 7.49086, 7.15379 7.61747, 7.30101 7.82946, 7.26862 8.12684, 7.23624 8.42716, 7.17146 8.57438, 7.07135 8.57143, 6.97713 8.57438, 6.86231 8.49488, 6.73275 8.33588, 6.40888 8.02378, 5.87595 7.64691, 5.12809 7.20526 Z M 4.25362 8.75987 C 5.74346 8.91886, 6.72392 9.06902, 7.19502 9.21035, 7.66611 9.35168, 7.91638 9.59606, 7.94877 9.94055, 7.98115 10.288, 7.91638 10.4587, 7.75149 10.4558, 7.65728 10.4587, 7.49534 10.3645, 7.26568 10.1731, 6.78281 9.79922, 5.77879 9.38996, 4.25362 8.94831 Z" stroke="none" fill="#000000" />
			<path d="M 43.2712 5.27377 C 42.9149 6.72239, 42.5263 7.82063, 42.1052 8.57438, 41.6842 9.32813, 41.1984 9.95821, 40.6478 10.4587, 40.0972 10.9593, 39.4966 11.3686, 38.8488 11.6806 L 38.7516 11.5393 C 39.5289 11.0064, 40.1443 10.444, 40.5977 9.84633, 41.0512 9.25157, 41.4339 8.59204, 41.7401 7.86773, 42.0493 7.14637, 42.332 6.23363, 42.5911 5.13245 L 40.9393 5.13245 C 40.745 5.5741, 40.5506 5.96864, 40.3563 6.31018, 40.8421 6.62817, 41.1483 6.87844, 41.2779 7.06687, 41.4074 7.25531, 41.4722 7.39664, 41.4722 7.48792, 41.4722 7.64691, 41.4163 7.79707, 41.3044 7.9384, 41.1925 8.07973, 41.1189 8.15039, 41.0836 8.14745, 40.9893 8.15039, 40.9069 7.99434, 40.8421 7.67635, 40.745 7.27003, 40.5506 6.87844, 40.2591 6.49862, 39.9676 7.00504, 39.579 7.50558, 39.0932 8.00612 L 38.946 7.86479 C 39.4995 7.14637, 39.9441 6.27485, 40.2827 5.25316, 40.6242 4.23442, 40.8245 3.45417, 40.8892 2.91831 L 40.2091 2.91831, 39.6762 3.01252, 39.2375 2.63565, 42.6882 2.63565, 43.2211 2.11745, 44.0485 2.91831, 41.6665 2.91831 C 41.5723 3.26574, 41.3603 3.91055, 41.0364 4.84979 L 42.541 4.84979, 42.9296 4.3787, 43.757 4.99112 Z M 44.8729 7.15815 C 44.8729 7.47614, 44.8906 8.118, 44.923 9.08963 L 44.1928 9.4194 C 44.2281 8.38594, 44.2428 7.69402, 44.2428 7.34659 L 44.2428 4.70846 C 44.2428 4.17848, 44.2281 3.68972, 44.1928 3.24807 L 45.2616 3.71916, 44.8729 4.09604 Z M 46.0889 3.48362 C 46.0889 2.95364, 46.0742 2.21461, 46.0389 1.26948 L 47.1077 1.78768, 46.719 2.07034, 46.719 10.974 C 46.7543 11.4775, 46.4305 11.8396, 45.7474 12.0575, 45.7179 11.6512, 45.2145 11.3509, 44.2428 11.1624 L 44.2899 10.9269 C 45.1026 11.0535, 45.6031 11.0918, 45.7974 11.0447, 45.9918 10.9976, 46.0889 10.8209, 46.0889 10.5029 Z M 37.8301 12.0575 C 37.8624 11.0211, 37.8772 10.285, 37.8772 9.84338 L 37.8772 4.99112 C 37.2294 5.96864, 36.7112 6.65761, 36.3226 7.06393 L 36.1783 6.96971 C 36.8908 5.80964, 37.4267 4.74379, 37.783 3.76922, 38.1392 2.79759, 38.3983 1.91723, 38.5573 1.12815 L 39.6261 1.69346, 39.2375 1.92901 C 38.7192 3.12441, 38.3806 3.91055, 38.2187 4.28448 L 38.8989 4.56713, 38.5102 4.8969, 38.5102 9.9376 C 38.5102 10.4735, 38.5279 11.0682, 38.5573 11.7278 Z" stroke="none" fill="#000000" />
			<rect />
		</svg>
	</g>
</svg>
